####
#
# OBJ File Generated by Meshlab
#
####
# Object sphere_embedded_red.obj
#
# Vertices: 104
# Faces: 200
#
####
mtllib ./sphere_embedded_red.obj.mtl

vn 0.722126 0.659897 -0.207532
v 8.645389 -1.978160 0.000071 0.752941 0.752941 0.752941
vn -0.668224 0.672270 -0.318637
v 6.500445 -1.929996 0.000000 0.752941 0.752941 0.752941
vn 0.766981 0.341855 -0.543024
v 8.913856 -2.374866 0.000000 0.752941 0.752941 0.752941
vn 0.339515 0.562716 0.753711
v 8.095855 -2.130293 1.101526 0.752941 0.752941 0.752941
vn 0.903521 0.035223 -0.427094
v 9.052642 -2.919003 0.000001 0.752941 0.752941 0.752941
vn 0.808016 -0.271712 -0.522765
v 8.992803 -3.440285 -0.000000 0.752941 0.752941 0.752941
vn 0.691573 -0.480351 -0.539435
v 8.796321 -3.848995 0.000000 0.752941 0.752941 0.752941
vn 0.079244 0.163925 -0.983285
v 8.223104 -1.663683 0.000000 0.752941 0.752941 0.752941
vn -0.120633 0.720475 -0.682908
v 7.290000 -1.533000 0.000000 0.752941 0.752941 0.752941
vn 0.107031 0.950500 -0.291709
v 7.724602 -1.515153 0.000080 0.752941 0.752941 0.752941
vn -0.326444 0.800650 -0.502387
v 6.915796 -1.645655 -0.000001 0.752941 0.752941 0.752941
vn -0.771374 -0.491355 -0.404416
v 6.317213 -3.872041 -0.000000 0.752941 0.752941 0.752941
vn -0.651289 0.312291 -0.691591
v 6.200004 -2.348541 -0.000000 0.752941 0.752941 0.752941
vn -0.902038 0.109755 -0.417471
v 6.051287 -2.881081 -0.000000 0.752941 0.752941 0.752941
vn -0.812764 -0.211180 -0.542971
v 6.097278 -3.398479 0.000000 0.752941 0.752941 0.752941
vn 0.505775 -0.748354 -0.429136
v 8.398854 -4.255476 -0.000000 0.752941 0.752941 0.752941
vn 0.148949 -0.834730 -0.530132
v 7.899420 -4.474195 0.000000 0.752941 0.752941 0.752941
vn -0.180262 -0.818568 -0.545391
v 7.284590 -4.498564 0.000000 0.752941 0.752941 0.752941
vn -0.550765 -0.717586 -0.426296
v 6.650981 -4.216817 0.000000 0.752941 0.752941 0.752941
vn 0.537211 0.779077 0.323178
v 8.344541 -1.832074 0.507101 0.752941 0.752941 0.752941
vn 0.550172 0.823740 0.136979
v 8.391318 -1.774725 0.190537 0.752941 0.752941 0.752941
vn 0.460835 0.296677 0.836429
v 8.230878 -2.483367 1.245878 0.752941 0.752941 0.752941
vn -0.025850 0.558171 0.829323
v 7.490881 -2.208400 1.279495 0.752941 0.752941 0.752941
vn -0.302020 0.464378 0.832549
v 7.129653 -2.272383 1.246575 0.752941 0.752941 0.752941
vn -0.089587 -0.681194 0.726600
v 7.426712 -4.036033 1.103269 0.752941 0.752941 0.752941
vn 0.141289 -0.642652 0.753018
v 7.752165 -4.009962 1.113322 0.752941 0.752941 0.752941
vn 0.182261 0.298060 0.936985
v 7.809621 -2.536542 1.418642 0.752941 0.752941 0.752941
vn 0.682917 0.057562 0.728224
v 8.576009 -2.939374 1.103587 0.752941 0.752941 0.752941
vn 0.398183 -0.065803 0.914943
v 8.145296 -3.099841 1.394856 0.752941 0.752941 0.752941
vn 0.730375 0.507444 0.457223
v 8.631783 -2.272026 0.747445 0.752941 0.752941 0.752941
vn 0.800233 0.211871 0.561015
v 8.759839 -2.714930 0.847830 0.752941 0.752941 0.752941
vn -0.146468 0.205206 0.967697
v 7.304367 -2.691540 1.460868 0.752941 0.752941 0.752941
vn 0.618888 0.399851 0.676089
v 8.488346 -2.430391 1.032757 0.752941 0.752941 0.752941
vn 0.853272 0.483365 0.195667
v 8.825235 -2.267333 0.304964 0.752941 0.752941 0.752941
vn 0.721803 0.653509 0.227872
v 8.678319 -2.056942 0.299034 0.752941 0.752941 0.752941
vn 0.976377 0.024140 0.214719
v 9.026367 -3.005650 0.302562 0.752941 0.752941 0.752941
vn 0.901651 0.250629 0.352435
v 8.914099 -2.617225 0.510818 0.752941 0.752941 0.752941
vn 0.957136 0.261270 0.125011
v 8.987877 -2.603061 0.189704 0.752941 0.752941 0.752941
vn 0.617789 -0.221507 0.754500
v 8.467705 -3.307435 1.164323 0.752941 0.752941 0.752941
vn -1.000000 0.000000 0.000000
v 7.437920 -3.441912 1.079399 0.752941 0.752941 0.752941
vn 0.791591 -0.204595 0.575781
v 8.756728 -3.333453 0.842350 0.752941 0.752941 0.752941
vn 0.894079 -0.052002 0.444881
v 8.886078 -3.107428 0.696436 0.752941 0.752941 0.752941
vn 0.708015 -0.447236 0.546530
v 8.615207 -3.674181 0.840987 0.752941 0.752941 0.752941
vn 0.699820 -0.600384 0.387030
v 8.626313 -3.902879 0.560514 0.752941 0.752941 0.752941
vn 0.872111 -0.317483 0.372326
v 8.873707 -3.494473 0.523929 0.752941 0.752941 0.752941
vn 0.959517 -0.218836 0.177310
v 8.987350 -3.395704 0.245942 0.752941 0.752941 0.752941
vn -0.506556 0.486801 0.711636
v 6.731585 -2.277526 1.037164 0.752941 0.752941 0.752941
vn 0.855258 -0.471658 0.214647
v 8.830229 -3.743234 0.306221 0.752941 0.752941 0.752941
vn 0.725582 -0.673992 0.138802
v 8.691344 -3.969835 0.179748 0.752941 0.752941 0.752941
vn -0.428517 0.203465 0.880326
v 6.954531 -2.794318 1.370583 0.752941 0.752941 0.752941
vn 0.477732 0.683136 0.552355
v 8.288402 -1.979386 0.810969 0.752941 0.752941 0.752941
vn 0.196463 0.750995 0.630404
v 7.809320 -1.911052 1.001505 0.752941 0.752941 0.752941
vn 0.328454 0.856497 0.398159
v 8.024120 -1.690630 0.551888 0.752941 0.752941 0.752941
vn 0.121033 0.913003 0.389585
v 7.785264 -1.629469 0.555279 0.752941 0.752941 0.752941
vn -0.079903 0.803517 0.589895
v 7.443365 -1.820707 0.924780 0.752941 0.752941 0.752941
vn 0.424543 -0.447755 0.786943
v 8.205523 -3.701683 1.171530 0.752941 0.752941 0.752941
vn -0.344435 -0.114614 0.931788
v 7.016562 -3.216691 1.401270 0.752941 0.752941 0.752941
vn -0.635641 0.297890 0.712195
v 6.601236 -2.576922 1.090336 0.752941 0.752941 0.752941
vn -0.649196 0.056515 0.758518
v 6.550907 -2.907092 1.127182 0.752941 0.752941 0.752941
vn -1.000000 0.000000 0.000000
v 7.864002 -3.807925 1.156307 0.752941 0.752941 0.752941
vn -0.094782 0.914740 0.392768
v 7.405156 -1.625817 0.574909 0.752941 0.752941 0.752941
vn 0.280213 0.945331 0.166822
v 7.911375 -1.559676 0.190798 0.752941 0.752941 0.752941
vn -0.710258 0.489476 0.505912
v 6.489839 -2.244742 0.748338 0.752941 0.752941 0.752941
vn -0.840126 0.395216 0.371474
v 6.280207 -2.441680 0.575365 0.752941 0.752941 0.752941
vn -0.108071 0.978547 0.175401
v 7.439597 -1.528977 0.265814 0.752941 0.752941 0.752941
vn -0.827288 -0.022126 0.561343
v 6.323211 -3.009118 0.867881 0.752941 0.752941 0.752941
vn -0.816967 0.213531 0.535695
v 6.331307 -2.672848 0.815375 0.752941 0.752941 0.752941
vn -0.295033 0.702089 0.648094
v 7.078337 -1.929858 0.942304 0.752941 0.752941 0.752941
vn -0.748950 0.610519 0.257567
v 6.427453 -2.053292 0.305517 0.752941 0.752941 0.752941
vn -0.653060 -0.224559 0.723247
v 6.574361 -3.322772 1.111410 0.752941 0.752941 0.752941
vn -0.103240 -0.391648 0.914305
v 7.334805 -3.541425 1.401079 0.752941 0.752941 0.752941
vn -0.897583 0.419472 0.135600
v 6.193290 -2.396940 0.246322 0.752941 0.752941 0.752941
vn -0.532551 0.717087 0.449639
v 6.800644 -1.939933 0.761045 0.752941 0.752941 0.752941
vn -0.294563 0.876304 0.381214
v 7.069558 -1.683143 0.518776 0.752941 0.752941 0.752941
vn -0.447546 0.876355 0.178059
v 6.884368 -1.679176 0.240989 0.752941 0.752941 0.752941
vn -0.613638 0.756894 0.224857
v 6.605898 -1.880939 0.319154 0.752941 0.752941 0.752941
vn -0.373433 -0.429087 0.822455
v 6.999559 -3.657943 1.245821 0.752941 0.752941 0.752941
vn -0.359006 -0.682931 0.636176
v 7.015635 -3.991005 1.015987 0.752941 0.752941 0.752941
vn -0.807026 -0.228688 0.544436
v 6.323236 -3.319541 0.814231 0.752941 0.752941 0.752941
vn -0.899574 -0.234411 0.368535
v 6.177495 -3.333632 0.532273 0.752941 0.752941 0.752941
vn -1.000000 0.000000 0.000000
v 7.992944 -3.294141 1.105508 0.752941 0.752941 0.752941
vn -0.581976 -0.672135 0.457753
v 6.688102 -4.046157 0.672910 0.752941 0.752941 0.752941
vn 0.055968 -0.078616 0.995333
v 7.729791 -3.136540 1.500237 0.752941 0.752941 0.752941
vn -0.571340 -0.479783 0.665867
v 6.651792 -3.665981 1.012737 0.752941 0.752941 0.752941
vn -0.746030 -0.459806 0.481683
v 6.489198 -3.779078 0.745807 0.752941 0.752941 0.752941
vn 0.433515 -0.687458 0.582638
v 8.172531 -4.039268 0.914290 0.752941 0.752941 0.752941
vn -0.929452 -0.338277 0.147267
v 6.160548 -3.514210 0.272640 0.752941 0.752941 0.752941
vn -0.849325 -0.468027 0.244129
v 6.275246 -3.752273 0.303970 0.752941 0.752941 0.752941
vn -0.737260 -0.641693 0.211373
v 6.424087 -3.953613 0.334491 0.752941 0.752941 0.752941
vn -0.927211 0.009021 0.374430
v 6.140011 -3.007682 0.520169 0.752941 0.752941 0.752941
vn 0.178749 -0.391529 0.902637
v 7.783589 -3.652722 1.347475 0.752941 0.752941 0.752941
vn -0.983962 -0.095216 0.150836
v 6.063168 -3.160317 0.185906 0.752941 0.752941 0.752941
vn -0.948978 0.165887 0.268183
v 6.118905 -2.754867 0.408195 0.752941 0.752941 0.752941
vn 0.569388 -0.745007 0.347508
v 8.386028 -4.138767 0.555653 0.752941 0.752941 0.752941
vn 0.530245 -0.830006 0.173001
v 8.383153 -4.246037 0.214916 0.752941 0.752941 0.752941
vn 0.147357 -0.859855 0.488810
v 7.791121 -4.335499 0.673765 0.752941 0.752941 0.752941
vn 0.356786 -0.862546 0.358773
v 8.035261 -4.325808 0.550734 0.752941 0.752941 0.752941
vn -0.068757 -0.886293 0.457993
v 7.439342 -4.357467 0.674534 0.752941 0.752941 0.752941
vn 0.239323 -0.952828 0.186663
v 7.940765 -4.447678 0.235784 0.752941 0.752941 0.752941
vn -0.093961 -0.975445 0.199193
v 7.396737 -4.487963 0.261628 0.752941 0.752941 0.752941
vn -0.467169 -0.795778 0.385344
v 6.855007 -4.227149 0.551886 0.752941 0.752941 0.752941
vn -0.288462 -0.860679 0.419550
v 7.092184 -4.261900 0.702555 0.752941 0.752941 0.752941
vn -0.395487 -0.901789 0.174261
v 6.919958 -4.358369 0.242663 0.752941 0.752941 0.752941
vn -0.612114 -0.763192 0.207015
v 6.598006 -4.142132 0.270203 0.752941 0.752941 0.752941
# 104 vertices, 0 vertices normals


usemtl material_0
f 3//3 5//5 8//8
f 8//8 1//1 3//3
f 9//9 10//10 8//8
f 11//11 8//8 2//2
f 5//5 6//6 8//8
f 2//2 8//8 13//13
f 11//11 9//9 8//8
f 14//14 13//13 8//8
f 7//7 8//8 6//6
f 4//4 52//52 23//23
f 15//15 8//8 12//12
f 7//7 16//16 8//8
f 15//15 14//14 8//8
f 18//18 8//8 17//17
f 16//16 17//17 8//8
f 12//12 8//8 19//19
f 18//18 19//19 8//8
f 4//4 27//27 22//22
f 4//4 23//23 27//27
f 21//21 35//35 1//1
f 1//1 8//8 21//21
f 52//52 55//55 23//23
f 33//33 4//4 22//22
f 77//77 25//25 71//71
f 24//24 23//23 68//68
f 27//27 23//23 32//32
f 40//40 81//81 60//60
f 32//32 23//23 24//24
f 28//28 22//22 29//29
f 29//29 22//22 27//27
f 28//28 33//33 22//22
f 28//28 31//31 33//33
f 37//37 34//34 30//30
f 33//33 51//51 4//4
f 30//30 51//51 33//33
f 32//32 83//83 27//27
f 29//29 27//27 83//83
f 30//30 35//35 20//20
f 30//30 20//20 51//51
f 30//30 34//34 35//35
f 42//42 37//37 31//31
f 31//31 37//37 30//30
f 42//42 36//36 37//37
f 28//28 42//42 31//31
f 30//30 33//33 31//31
f 37//37 38//38 34//34
f 38//38 5//5 3//3
f 38//38 3//3 34//34
f 35//35 21//21 20//20
f 1//1 34//34 3//3
f 1//1 35//35 34//34
f 36//36 38//38 37//37
f 36//36 5//5 38//38
f 39//39 28//28 29//29
f 43//43 39//39 56//56
f 41//41 45//45 42//42
f 28//28 39//39 41//41
f 42//42 28//28 41//41
f 41//41 43//43 45//45
f 48//48 45//45 43//43
f 56//56 86//86 43//43
f 43//43 41//41 39//39
f 86//86 44//44 43//43
f 44//44 86//86 94//94
f 48//48 43//43 44//44
f 46//46 42//42 45//45
f 42//42 46//46 36//36
f 68//68 47//47 24//24
f 68//68 73//73 47//47
f 24//24 50//50 32//32
f 46//46 5//5 36//36
f 48//48 6//6 46//46
f 24//24 47//47 50//50
f 5//5 46//46 6//6
f 48//48 44//44 49//49
f 48//48 46//46 45//45
f 16//16 7//7 49//49
f 95//95 16//16 49//49
f 49//49 7//7 48//48
f 6//6 48//48 7//7
f 55//55 68//68 23//23
f 50//50 47//47 58//58
f 51//51 52//52 4//4
f 32//32 50//50 57//57
f 53//53 52//52 51//51
f 53//53 54//54 52//52
f 51//51 20//20 53//53
f 56//56 29//29 91//91
f 56//56 39//39 29//29
f 50//50 58//58 59//59
f 57//57 77//77 71//71
f 54//54 55//55 52//52
f 61//61 55//55 54//54
f 61//61 74//74 55//55
f 63//63 58//58 47//47
f 20//20 62//62 53//53
f 21//21 62//62 20//20
f 62//62 54//54 53//53
f 62//62 65//65 54//54
f 8//8 62//62 21//21
f 8//8 10//10 62//62
f 54//54 65//65 61//61
f 69//69 64//64 63//63
f 65//65 74//74 61//61
f 69//69 72//72 64//64
f 58//58 63//63 67//67
f 62//62 10//10 65//65
f 58//58 67//67 59//59
f 10//10 9//9 65//65
f 67//67 66//66 59//59
f 63//63 64//64 67//67
f 64//64 93//93 67//67
f 93//93 90//90 67//67
f 67//67 90//90 66//66
f 50//50 59//59 57//57
f 59//59 70//70 57//57
f 13//13 72//72 2//2
f 76//76 2//2 69//69
f 69//69 2//2 72//72
f 64//64 72//72 93//93
f 70//70 77//77 57//57
f 63//63 47//47 73//73
f 55//55 74//74 68//68
f 74//74 73//73 68//68
f 76//76 69//69 73//73
f 73//73 69//69 63//63
f 73//73 74//74 75//75
f 75//75 76//76 73//73
f 74//74 65//65 75//75
f 65//65 11//11 75//75
f 65//65 9//9 11//11
f 11//11 2//2 75//75
f 2//2 76//76 75//75
f 70//70 84//84 77//77
f 84//84 78//78 77//77
f 78//78 25//25 77//77
f 70//70 59//59 66//66
f 79//79 70//70 66//66
f 80//80 79//79 66//66
f 66//66 90//90 80//80
f 84//84 82//82 78//78
f 82//82 101//101 78//78
f 70//70 79//79 85//85
f 85//85 84//84 70//70
f 82//82 84//84 85//85
f 80//80 85//85 79//79
f 83//83 91//91 29//29
f 80//80 88//88 85//85
f 88//88 89//89 85//85
f 89//89 82//82 85//85
f 26//26 86//86 56//56
f 87//87 88//88 80//80
f 12//12 87//87 15//15
f 89//89 104//104 82//82
f 71//71 26//26 91//91
f 25//25 26//26 71//71
f 87//87 12//12 88//88
f 89//89 88//88 12//12
f 92//92 90//90 93//93
f 93//93 14//14 92//92
f 14//14 93//93 72//72
f 56//56 91//91 26//26
f 13//13 14//14 72//72
f 92//92 80//80 90//90
f 92//92 87//87 80//80
f 14//14 15//15 92//92
f 92//92 15//15 87//87
f 86//86 97//97 94//94
f 49//49 44//44 94//94
f 94//94 95//95 49//49
f 25//25 96//96 26//26
f 26//26 96//96 86//86
f 96//96 97//97 86//86
f 98//98 25//25 78//78
f 25//25 98//98 96//96
f 98//98 99//99 96//96
f 57//57 83//83 32//32
f 96//96 99//99 97//97
f 94//94 97//97 95//95
f 97//97 99//99 95//95
f 99//99 17//17 16//16
f 99//99 16//16 95//95
f 99//99 98//98 100//100
f 57//57 71//71 83//83
f 103//103 18//18 100//100
f 100//100 18//18 17//17
f 100//100 17//17 99//99
f 78//78 102//102 98//98
f 78//78 101//101 102//102
f 71//71 91//91 83//83
f 81//81 40//40 60//60
f 98//98 102//102 100//100
f 82//82 104//104 101//101
f 102//102 101//101 103//103
f 100//100 102//102 103//103
f 104//104 19//19 103//103
f 18//18 103//103 19//19
f 104//104 103//103 101//101
f 104//104 89//89 19//19
f 12//12 19//19 89//89
# 200 faces, 0 coords texture

# End of File
