####
#
# OBJ File Generated by Meshlab
#
####
# Object simple-full.obj
#
# Vertices: 104
# Faces: 200
#
####
mtllib ./simple-full.obj.mtl

vn 0.722126 0.659896 -0.207533
v 0.995388 0.721840 -0.899929 0.749020 0.749020 0.749020
vn -0.668224 0.672270 -0.318638
v -1.149555 0.770003 -0.900000 0.749020 0.749020 0.749020
vn 0.766982 0.341855 -0.543023
v 1.263856 0.325134 -0.900000 0.749020 0.749020 0.749020
vn 0.196404 0.473574 0.858576
v 0.181016 0.456322 0.372143 0.749020 0.749020 0.749020
vn 0.905759 0.038463 -0.422044
v 1.402642 -0.219003 -0.899999 0.749020 0.749020 0.749020
vn 0.805317 -0.271858 -0.526837
v 1.354370 -0.696969 -0.900000 0.749020 0.749020 0.749020
vn 0.591610 -0.422155 -0.686865
v 1.115961 -1.194296 -0.900000 0.749020 0.749020 0.749020
vn 0.079244 0.163925 -0.983285
v 0.573103 1.036317 -0.900000 0.749020 0.749020 0.749020
vn -0.120633 0.720475 -0.682908
v -0.360000 1.167000 -0.900000 0.749020 0.749020 0.749020
vn 0.107031 0.950500 -0.291710
v 0.074602 1.184847 -0.899920 0.749020 0.749020 0.749020
vn -0.326444 0.800650 -0.502387
v -0.734204 1.054345 -0.900001 0.749020 0.749020 0.749020
vn -0.774113 -0.485151 -0.406666
v -1.358046 -1.135958 -0.900000 0.749020 0.749020 0.749020
vn -0.649689 0.317982 -0.690501
v -1.449996 0.351461 -0.900000 0.749020 0.749020 0.749020
vn -0.902697 0.122262 -0.412542
v -1.594864 -0.136895 -0.900000 0.749020 0.749020 0.749020
vn -0.817527 -0.195007 -0.541869
v -1.564304 -0.655331 -0.900000 0.749020 0.749020 0.749020
vn 0.520141 -0.755526 -0.398288
v 0.748853 -1.555476 -0.900000 0.749020 0.749020 0.749020
vn 0.148949 -0.834731 -0.530131
v 0.249420 -1.774196 -0.900000 0.749020 0.749020 0.749020
vn 0.384184 0.380015 0.841422
v 0.489253 0.260794 0.366705 0.749020 0.749020 0.749020
vn -0.177440 -0.822298 -0.540685
v -0.365410 -1.798564 -0.900000 0.749020 0.749020 0.749020
vn -0.547810 -0.716007 -0.432711
v -0.963065 -1.542045 -0.900000 0.749020 0.749020 0.749020
vn 0.537210 0.779077 0.323179
v 0.694541 0.867926 -0.392899 0.749020 0.749020 0.749020
vn 0.550172 0.823740 0.136979
v 0.741318 0.925275 -0.709462 0.749020 0.749020 0.749020
vn -0.057086 0.583499 0.810105
v -0.211340 0.521294 0.353749 0.749020 0.749020 0.749020
vn -0.148410 -0.515645 0.843851
v -0.344202 -1.109964 0.356012 0.749020 0.749020 0.749020
vn 0.104687 -0.582114 0.806340
v 0.042118 -1.148161 0.345819 0.749020 0.749020 0.749020
vn -0.379813 -0.654675 0.653562
v -0.661836 -1.264242 0.126716 0.749020 0.749020 0.749020
vn 0.694045 0.032854 0.719181
v 0.926009 -0.239374 0.203587 0.749020 0.749020 0.749020
vn 0.384475 0.141842 0.912173
v 0.447533 -0.101297 0.495057 0.749020 0.749020 0.749020
vn 0.459213 0.553886 0.694503
v 0.616554 0.522824 0.136986 0.749020 0.749020 0.749020
vn 0.718272 0.503508 0.480172
v 0.981782 0.427975 -0.152555 0.749020 0.749020 0.749020
vn 0.796235 0.207365 0.568340
v 1.109839 -0.014931 -0.052170 0.749020 0.749020 0.749020
vn -0.013308 0.209604 0.977696
v -0.125883 -0.003498 0.588367 0.749020 0.749020 0.749020
vn 0.601124 0.307575 0.737596
v 0.786220 0.167497 0.228052 0.749020 0.749020 0.749020
vn 0.903506 0.241767 0.353871
v 1.273197 0.040310 -0.382922 0.749020 0.749020 0.749020
vn 0.854648 0.479563 0.198988
v 1.175234 0.432668 -0.595036 0.749020 0.749020 0.749020
vn 0.000000 0.124035 -0.992278
v -0.184482 -0.901313 0.274884 0.749020 0.749020 0.749020
vn 0.721803 0.653509 0.227872
v 1.028319 0.643059 -0.600966 0.749020 0.749020 0.749020
vn -0.234284 0.465582 0.853431
v -0.480667 0.395660 0.382035 0.749020 0.749020 0.749020
vn 0.977130 0.019935 0.211708
v 1.376367 -0.305649 -0.597437 0.749020 0.749020 0.749020
vn 0.957486 0.259463 0.126095
v 1.337877 0.096938 -0.710298 0.749020 0.749020 0.749020
vn 0.600575 -0.187727 0.777218
v 0.848591 -0.609722 0.238546 0.749020 0.749020 0.749020
vn 0.710220 -0.445175 0.545351
v 0.965207 -0.974182 -0.059014 0.749020 0.749020 0.749020
vn 0.413299 -0.458102 0.786973
v 0.525336 -0.998871 0.289232 0.749020 0.749020 0.749020
vn 0.795320 -0.202782 0.571267
v 1.106728 -0.633452 -0.057650 0.749020 0.749020 0.749020
vn 0.893225 -0.055636 0.446155
v 1.236078 -0.407429 -0.203565 0.749020 0.749020 0.749020
vn 0.491396 -0.663748 0.563888
v 0.590699 -1.337505 -0.042613 0.749020 0.749020 0.749020
vn 0.690714 -0.597078 0.407937
v 0.976313 -1.202879 -0.339486 0.749020 0.749020 0.749020
vn -0.435990 0.506568 0.743843
v -0.697544 0.464741 0.255781 0.749020 0.749020 0.749020
vn 0.871201 -0.322196 0.370404
v 1.223707 -0.794471 -0.376070 0.749020 0.749020 0.749020
vn 0.958743 -0.223598 0.175542
v 1.337350 -0.695705 -0.654058 0.749020 0.749020 0.749020
vn 0.805428 -0.560240 0.193436
v 1.137680 -1.126770 -0.607243 0.749020 0.749020 0.749020
vn -0.067154 0.812496 0.579087
v -0.211921 0.898612 -0.001741 0.749020 0.749020 0.749020
vn 0.472772 0.704316 0.529552
v 0.638402 0.720614 -0.089031 0.749020 0.749020 0.749020
vn 0.205589 0.737172 0.643670
v 0.193239 0.786949 0.093602 0.749020 0.749020 0.749020
vn 0.330226 0.856854 0.395919
v 0.374121 1.009370 -0.348112 0.749020 0.749020 0.749020
vn 0.127380 0.912743 0.388168
v 0.135264 1.070531 -0.344721 0.749020 0.749020 0.749020
vn -0.389210 0.201465 0.898848
v -0.688344 -0.031651 0.460613 0.749020 0.749020 0.749020
vn -0.221937 -0.136865 0.965408
v -0.458945 -0.527858 0.560952 0.749020 0.749020 0.749020
vn -0.630623 0.035635 0.775271
v -1.070854 -0.219213 0.253337 0.749020 0.749020 0.749020
vn -0.080237 0.917502 0.389554
v -0.201873 1.075123 -0.318173 0.749020 0.749020 0.749020
vn -0.610839 0.297761 0.733631
v -1.026228 0.117714 0.212379 0.749020 0.749020 0.749020
vn -0.681029 0.492404 0.541975
v -1.118037 0.442242 -0.075596 0.749020 0.749020 0.749020
vn 0.280212 0.945332 0.166821
v 0.261375 1.140324 -0.709202 0.749020 0.749020 0.749020
vn -0.837031 0.396943 0.376585
v -1.369793 0.258320 -0.324636 0.749020 0.749020 0.749020
vn -0.104961 0.978744 0.176189
v -0.210404 1.171023 -0.634186 0.749020 0.749020 0.749020
vn -0.833774 -0.009056 0.552031
v -1.326789 -0.309119 -0.032119 0.749020 0.749020 0.749020
vn -0.814500 0.208513 0.541397
v -1.318694 0.027153 -0.084627 0.749020 0.749020 0.749020
vn -0.261946 0.720192 0.642423
v -0.505225 0.812574 0.020085 0.749020 0.749020 0.749020
vn -0.747110 0.610030 0.263988
v -1.222547 0.646707 -0.594482 0.749020 0.749020 0.749020
vn -0.895566 0.422794 0.138588
v -1.456710 0.303060 -0.653677 0.749020 0.749020 0.749020
vn -0.518625 0.720006 0.461106
v -0.849357 0.760067 -0.138956 0.749020 0.749020 0.749020
vn 0.271280 -0.129173 0.953793
v 0.395727 -0.510192 0.515537 0.749020 0.749020 0.749020
vn -0.287726 0.880457 0.376842
v -0.580441 1.016857 -0.381224 0.749020 0.749020 0.749020
vn -0.447546 0.876355 0.178060
v -0.765632 1.020824 -0.659011 0.749020 0.749020 0.749020
vn -0.613638 0.756894 0.224856
v -1.044101 0.819061 -0.580846 0.749020 0.749020 0.749020
vn -0.543448 -0.207840 0.813306
v -0.887961 -0.629334 0.348121 0.749020 0.749020 0.749020
vn -0.583847 -0.453010 0.673724
v -0.998209 -0.965981 0.112737 0.749020 0.749020 0.749020
vn -0.384504 -0.404307 0.829875
v -0.675027 -0.897216 0.364677 0.749020 0.749020 0.749020
vn -0.754204 -0.222461 0.617808
v -1.271104 -0.629239 -0.002852 0.749020 0.749020 0.749020
vn 0.000000 0.124035 -0.992278
v 0.151901 -0.487401 0.155245 0.749020 0.749020 0.749020
vn -0.896879 -0.237112 0.373344
v -1.472504 -0.633633 -0.367728 0.749020 0.749020 0.749020
vn 0.000000 0.124035 -0.992278
v 0.270921 -1.082162 0.190541 0.749020 0.749020 0.749020
vn -0.583306 -0.671245 0.457367
v -0.961898 -1.346157 -0.227091 0.749020 0.749020 0.749020
vn -0.744106 -0.482183 0.462390
v -1.160802 -1.079078 -0.154193 0.749020 0.749020 0.749020
vn 0.253895 -0.717827 0.648277
v 0.306014 -1.352232 0.115015 0.749020 0.749020 0.749020
vn -0.931210 -0.331786 0.150885
v -1.489452 -0.814209 -0.627361 0.749020 0.749020 0.749020
vn -0.848635 -0.467078 0.248309
v -1.374754 -1.052274 -0.596030 0.749020 0.749020 0.749020
vn -0.739579 -0.642211 0.201463
v -1.225913 -1.253613 -0.565509 0.749020 0.749020 0.749020
vn -0.927211 0.009020 0.374430
v -1.509989 -0.307680 -0.379832 0.749020 0.749020 0.749020
vn -0.984211 -0.089662 0.152610
v -1.586832 -0.460317 -0.714094 0.749020 0.749020 0.749020
vn -0.948217 0.167231 0.270033
v -1.531096 -0.054868 -0.491805 0.749020 0.749020 0.749020
vn 0.576154 -0.744914 0.336378
v 0.736028 -1.438766 -0.344346 0.749020 0.749020 0.749020
vn 0.543345 -0.821551 0.172716
v 0.733153 -1.546037 -0.685083 0.749020 0.749020 0.749020
vn 0.142931 -0.886065 0.440975
v 0.141120 -1.635499 -0.226235 0.749020 0.749020 0.749020
vn 0.353050 -0.851825 0.386975
v 0.385260 -1.625808 -0.349267 0.749020 0.749020 0.749020
vn -0.061110 -0.774545 0.629560
v -0.195737 -1.519069 -0.000441 0.749020 0.749020 0.749020
vn -0.051342 -0.928494 0.367782
v -0.237851 -1.691078 -0.315687 0.749020 0.749020 0.749020
vn 0.241484 -0.952434 0.185890
v 0.290765 -1.747678 -0.664217 0.749020 0.749020 0.749020
vn -0.100231 -0.976018 0.193245
v -0.253262 -1.787963 -0.638372 0.749020 0.749020 0.749020
vn -0.466816 -0.795278 0.386802
v -0.794993 -1.527149 -0.348114 0.749020 0.749020 0.749020
vn 0.104666 -0.347119 0.931962
v 0.101279 -0.841314 0.505245 0.749020 0.749020 0.749020
vn -0.288307 -0.857567 0.425978
v -0.557817 -1.561900 -0.197445 0.749020 0.749020 0.749020
vn -0.393110 -0.902015 0.178419
v -0.730042 -1.658369 -0.657337 0.749020 0.749020 0.749020
vn -0.614360 -0.763053 0.200778
v -1.051995 -1.442131 -0.629796 0.749020 0.749020 0.749020
# 104 vertices, 0 vertices normals


usemtl material_0
f 3//3 5//5 8//8
f 8//8 1//1 3//3
f 18//18 29//29 4//4
f 29//29 54//54 4//4
f 9//9 10//10 8//8
f 11//11 8//8 2//2
f 5//5 6//6 8//8
f 2//2 8//8 13//13
f 11//11 9//9 8//8
f 14//14 13//13 8//8
f 7//7 8//8 6//6
f 15//15 8//8 12//12
f 7//7 16//16 8//8
f 15//15 14//14 8//8
f 19//19 8//8 17//17
f 16//16 17//17 8//8
f 12//12 8//8 20//20
f 19//19 20//20 8//8
f 22//22 37//37 1//1
f 1//1 8//8 22//22
f 4//4 54//54 23//23
f 54//54 52//52 23//23
f 29//29 18//18 33//33
f 68//68 48//48 38//38
f 38//38 23//23 68//68
f 28//28 33//33 18//18
f 4//4 23//23 32//32
f 24//24 96//96 25//25
f 23//23 38//38 32//32
f 24//24 26//26 96//96
f 27//27 33//33 28//28
f 27//27 31//31 33//33
f 18//18 4//4 28//28
f 28//28 4//4 32//32
f 34//34 35//35 30//30
f 33//33 30//30 29//29
f 30//30 53//53 29//29
f 30//30 37//37 21//21
f 30//30 21//21 53//53
f 30//30 35//35 37//37
f 72//72 28//28 32//32
f 45//45 34//34 31//31
f 31//31 34//34 30//30
f 45//45 39//39 34//34
f 27//27 45//45 31//31
f 30//30 33//33 31//31
f 34//34 40//40 35//35
f 40//40 5//5 3//3
f 40//40 3//3 35//35
f 38//38 57//57 32//32
f 37//37 22//22 21//21
f 1//1 35//35 3//3
f 1//1 37//37 35//35
f 39//39 40//40 34//34
f 39//39 5//5 40//40
f 28//28 72//72 41//41
f 41//41 27//27 28//28
f 42//42 41//41 43//43
f 44//44 49//49 45//45
f 27//27 41//41 44//44
f 45//45 27//27 44//44
f 44//44 42//42 49//49
f 51//51 49//49 42//42
f 43//43 46//46 42//42
f 42//42 44//44 41//41
f 46//46 47//47 42//42
f 47//47 46//46 92//92
f 51//51 42//42 47//47
f 50//50 45//45 49//49
f 45//45 50//50 39//39
f 48//48 57//57 38//38
f 50//50 5//5 39//39
f 51//51 6//6 50//50
f 5//5 50//50 6//6
f 51//51 50//50 49//49
f 62//62 61//61 48//48
f 16//16 7//7 51//51
f 93//93 16//16 51//51
f 6//6 51//51 7//7
f 52//52 68//68 23//23
f 57//57 48//48 61//61
f 53//53 54//54 29//29
f 32//32 57//57 58//58
f 55//55 54//54 53//53
f 55//55 56//56 54//54
f 53//53 21//21 55//55
f 59//59 58//58 57//57
f 43//43 72//72 101//101
f 43//43 41//41 72//72
f 57//57 61//61 59//59
f 76//76 78//78 58//58
f 56//56 52//52 54//54
f 60//60 52//52 56//56
f 71//71 62//62 48//48
f 60//60 73//73 52//52
f 21//21 63//63 55//55
f 22//22 63//63 21//21
f 63//63 56//56 55//55
f 63//63 65//65 56//56
f 8//8 63//63 22//22
f 8//8 10//10 63//63
f 56//56 65//65 60//60
f 69//69 64//64 62//62
f 65//65 73//73 60//60
f 69//69 70//70 64//64
f 61//61 62//62 67//67
f 63//63 10//10 65//65
f 61//61 67//67 59//59
f 10//10 9//9 65//65
f 67//67 66//66 59//59
f 68//68 71//71 48//48
f 62//62 64//64 67//67
f 64//64 91//91 67//67
f 91//91 89//89 67//67
f 67//67 89//89 66//66
f 58//58 59//59 76//76
f 13//13 70//70 2//2
f 75//75 2//2 69//69
f 69//69 2//2 70//70
f 64//64 70//70 91//91
f 52//52 73//73 68//68
f 73//73 71//71 68//68
f 75//75 69//69 71//71
f 71//71 69//69 62//62
f 71//71 73//73 74//74
f 74//74 75//75 71//71
f 73//73 65//65 74//74
f 80//80 82//82 36//36
f 65//65 11//11 74//74
f 65//65 9//9 11//11
f 11//11 2//2 74//74
f 2//2 75//75 74//74
f 76//76 77//77 78//78
f 59//59 79//79 76//76
f 79//79 77//77 76//76
f 77//77 26//26 78//78
f 78//78 26//26 24//24
f 79//79 59//59 66//66
f 58//58 78//78 24//24
f 81//81 79//79 66//66
f 58//58 24//24 101//101
f 66//66 89//89 81//81
f 77//77 83//83 26//26
f 58//58 72//72 32//32
f 83//83 100//100 26//26
f 84//84 77//77 79//79
f 83//83 77//77 84//84
f 81//81 84//84 79//79
f 81//81 87//87 84//84
f 87//87 88//88 84//84
f 88//88 83//83 84//84
f 101//101 72//72 58//58
f 25//25 96//96 85//85
f 86//86 87//87 81//81
f 85//85 46//46 43//43
f 12//12 86//86 15//15
f 88//88 104//104 83//83
f 101//101 24//24 25//25
f 86//86 12//12 87//87
f 88//88 87//87 12//12
f 90//90 89//89 91//91
f 91//91 14//14 90//90
f 25//25 43//43 101//101
f 14//14 91//91 70//70
f 43//43 25//25 85//85
f 13//13 14//14 70//70
f 90//90 81//81 89//89
f 90//90 86//86 81//81
f 14//14 15//15 90//90
f 90//90 15//15 86//86
f 46//46 95//95 92//92
f 51//51 47//47 92//92
f 92//92 93//93 51//51
f 96//96 94//94 85//85
f 94//94 95//95 85//85
f 85//85 95//95 46//46
f 97//97 94//94 96//96
f 97//97 98//98 94//94
f 94//94 98//98 95//95
f 92//92 95//95 93//93
f 95//95 98//98 93//93
f 98//98 17//17 16//16
f 98//98 16//16 93//93
f 98//98 97//97 99//99
f 103//103 19//19 99//99
f 99//99 19//19 17//17
f 99//99 17//17 98//98
f 26//26 102//102 96//96
f 26//26 100//100 102//102
f 102//102 97//97 96//96
f 97//97 102//102 99//99
f 83//83 104//104 100//100
f 102//102 100//100 103//103
f 99//99 102//102 103//103
f 104//104 20//20 103//103
f 19//19 103//103 20//20
f 104//104 103//103 100//100
f 104//104 88//88 20//20
f 12//12 20//20 88//88
f 82//82 80//80 36//36
# 200 faces, 0 coords texture

# End of File
